<svg xmlns="http://www.w3.org/2000/svg" width="128" height="128" viewBox="0 0 128 128">
  <!-- Background -->
  <rect width="128" height="128" rx="24" fill="#f8f9fa"/>

  <!-- Document shape -->
  <path d="M32 24h48l16 16v64c0 4.4-3.6 8-8 8H32c-4.4 0-8-3.6-8-8V32c0-4.4 3.6-8 8-8z"
        fill="none" stroke="#6b7280" stroke-width="4" stroke-linecap="round" stroke-linejoin="round"/>

  <!-- Document fold -->
  <path d="M80 24v16h16" fill="none" stroke="#6b7280" stroke-width="4" stroke-linecap="round" stroke-linejoin="round"/>

  <!-- Pen/marker -->
  <g transform="translate(52, 28) rotate(45)">
    <rect x="0" y="0" width="12" height="40" rx="2" fill="#6b7280"/>
    <path d="M0 40l6 12l6-12" fill="#6b7280"/>
    <rect x="2" y="4" width="8" height="8" fill="#9ca3af"/>
  </g>

  <!-- Green checkmark -->
  <circle cx="88" cy="88" r="20" fill="#22c55e"/>
  <path d="M78 88l6 6l12-12" fill="none" stroke="white" stroke-width="4" stroke-linecap="round" stroke-linejoin="round"/>
</svg>
